<?xml version="1.0" encoding="UTF-8" standalone="no"?>
<svg
   viewBox="0 0 200 200"
   width="200"
   height="200"
   version="1.1"
   id="svg2"
   sodipodi:docname="default.svg"
   inkscape:version="1.4.2 (ebf0e940, 2025-05-08)"
   xml:space="preserve"
   xmlns:inkscape="http://www.inkscape.org/namespaces/inkscape"
   xmlns:sodipodi="http://sodipodi.sourceforge.net/DTD/sodipodi-0.dtd"
   xmlns="http://www.w3.org/2000/svg"
   xmlns:svg="http://www.w3.org/2000/svg"><defs
     id="defs2"><style
       id="style1">.cls-1{fill:#fbd433;}.cls-1,.cls-2{fill-rule:evenodd;}.cls-2{fill:#141518;}</style></defs><sodipodi:namedview
     id="namedview2"
     pagecolor="#ffffff"
     bordercolor="#000000"
     borderopacity="0.25"
     inkscape:showpageshadow="2"
     inkscape:pageopacity="0.0"
     inkscape:pagecheckerboard="0"
     inkscape:deskcolor="#d1d1d1"
     inkscape:zoom="2.2219341"
     inkscape:cx="83.260794"
     inkscape:cy="91.811903"
     inkscape:window-width="976"
     inkscape:window-height="977"
     inkscape:window-x="0"
     inkscape:window-y="25"
     inkscape:window-maximized="0"
     inkscape:current-layer="svg2" /><g
     id="g3"
     transform="matrix(1.2344817,0,0,1.2344817,24.922602,23.50793)"><path
       class="cls-1"
       d="M 45.54,2.11 A 61.42,61.42 0 1 1 2.11,77.34 61.42,61.42 0 0 1 45.54,2.11 Z"
       id="path1" /><path
       class="cls-2"
       d="m 45.78,32.27 c 4.3,0 7.79,5 7.79,11.27 0,6.27 -3.49,11.27 -7.79,11.27 -4.3,0 -7.78,-5.04 -7.78,-11.27 0,-6.23 3.48,-11.27 7.78,-11.27 z"
       id="path2-0" /><path
       class="cls-2"
       d="m 77.1,32.27 c 4.3,0 7.78,5 7.78,11.27 0,6.27 -3.48,11.27 -7.78,11.27 -4.3,0 -7.79,-5 -7.79,-11.27 0,-6.27 3.49,-11.27 7.79,-11.27 z"
       id="path3" /><path
       d="m 28.8,70.82 a 39.65,39.65 0 0 0 8.83,8.41 42.72,42.72 0 0 0 25,7.53 40.44,40.44 0 0 0 24.12,-8.12 35.75,35.75 0 0 0 7.49,-7.87 0.22,0.22 0 0 1 0.31,0 L 97,73.14 A 0.21,0.21 0 0 1 97,73.43 45.87,45.87 0 0 1 82.89,88.58 37.67,37.67 0 0 1 62.83,95 39,39 0 0 1 42.15,89.45 50.52,50.52 0 0 1 25.9,73.57 a 0.23,0.23 0 0 1 0,-0.28 l 2.52,-2.5 a 0.22,0.22 0 0 1 0.32,0 v 0 z"
       id="path4" /></g></svg>
