<?xml version="1.0" encoding="UTF-8" standalone="no"?>
<!-- Created with Inkscape (http://www.inkscape.org/) -->

<svg
   width="600"
   height="600"
   viewBox="0 0 158.75 158.75"
   version="1.1"
   id="svg1"
   xml:space="preserve"
   inkscape:version="1.4.2 (ebf0e940, 2025-05-08)"
   sodipodi:docname="cleancentive_logo.svg"
   xmlns:inkscape="http://www.inkscape.org/namespaces/inkscape"
   xmlns:sodipodi="http://sodipodi.sourceforge.net/DTD/sodipodi-0.dtd"
   xmlns="http://www.w3.org/2000/svg"
   xmlns:svg="http://www.w3.org/2000/svg"><sodipodi:namedview
     id="namedview1"
     pagecolor="#ffffff"
     bordercolor="#000000"
     borderopacity="0.25"
     inkscape:showpageshadow="2"
     inkscape:pageopacity="0.0"
     inkscape:pagecheckerboard="0"
     inkscape:deskcolor="#d1d1d1"
     inkscape:document-units="mm"
     inkscape:zoom="0.50079504"
     inkscape:cx="736.82839"
     inkscape:cy="566.09986"
     inkscape:window-width="1920"
     inkscape:window-height="976"
     inkscape:window-x="0"
     inkscape:window-y="25"
     inkscape:window-maximized="1"
     inkscape:current-layer="g10" /><defs
     id="defs1" /><g
     inkscape:label="Layer 1"
     inkscape:groupmode="layer"
     id="layer1"><g
       id="g10"
       transform="translate(4.881877,-70.908831)"><circle
         style="fill:none;stroke:#246882;stroke-width:5.21;stroke-dasharray:none;stroke-opacity:1"
         id="path15"
         cx="74.493126"
         cy="150.28383"
         r="75.210648" /><g
         id="g15"
         transform="matrix(1.1751065,0,0,1.1751065,-46.329955,-27.291324)"><path
           style="fill:#89cfcf"
           d="m 109.25835,205.68572 c -0.73762,-0.23731 -1.37706,-0.26723 -2.11666,-0.099 -1.32039,0.30026 -2.86621,-0.11514 -3.43144,-0.92211 -0.22354,-0.31916 -0.38955,-1.00028 -0.3689,-1.51361 l 0.0375,-0.93331 0.18949,1.05833 c 0.18249,1.01923 0.19088,1.02656 0.22704,0.19844 0.0207,-0.47294 0.12754,-0.8599 0.23754,-0.8599 0.11,0 0.35594,-0.35231 0.54654,-0.78291 0.44942,-1.0153 1.7379,-1.79614 3.51856,-2.1323 1.9927,-0.37619 2.27889,-0.48795 2.46034,-0.96078 0.1213,-0.3161 0.0476,-0.37049 -0.30629,-0.22606 -0.25631,0.10461 -1.1696,0.35903 -2.02953,0.56539 -2.00202,0.48042 -3.47405,1.31228 -4.12813,2.33286 -0.28444,0.44381 -0.51916,0.68702 -0.52161,0.54047 -0.002,-0.14655 0.5325,-0.92046 1.18879,-1.71979 0.6563,-0.79934 1.39162,-1.97185 1.63406,-2.6056 0.44222,-1.15597 0.39888,-1.74258 -0.31559,-4.27169 -0.10979,-0.38864 0.0703,-0.20787 0.43665,0.43826 0.82863,1.46152 2.60054,3.79507 2.88167,3.79507 0.63218,0 0.45131,-0.67061 -0.48337,-1.79214 -2.03919,-2.44684 -2.66333,-4.53193 -1.74781,-5.83901 0.5956,-0.85034 0.2339,-1.04856 -0.5572,-0.30537 -0.49883,0.46863 -0.67077,0.91663 -0.70275,1.83108 -0.0361,1.03049 -0.0586,1.07724 -0.15179,0.31414 -0.24779,-2.02983 0.41321,-2.73423 3.15419,-3.36123 1.03873,-0.23762 1.84959,-0.59681 2.14479,-0.95009 0.46319,-0.55433 0.52383,-0.55901 2.51354,-0.19365 1.78471,0.32772 2.04954,0.44935 2.12422,0.97558 0.0614,0.4329 0.52647,0.82387 1.66133,1.39675 2.90995,1.46893 3.29684,2.49881 1.6955,4.51327 -0.50791,0.63894 -0.92463,1.29448 -0.92604,1.45676 -0.001,0.16228 -0.25998,0.6223 -0.57461,1.02227 -0.50583,0.64307 -0.69859,0.70988 -1.6656,0.57734 -0.60147,-0.0824 -1.3104,-0.23309 -1.57541,-0.33479 -0.41561,-0.15948 -0.44263,-0.11163 -0.19659,0.3481 0.39386,0.73594 1.72055,1.23196 2.81854,1.05378 0.50425,-0.0818 0.98322,-0.0413 1.06436,0.0899 0.0811,0.1313 0.49086,1.38222 0.91047,2.77982 0.88554,2.94951 0.77519,3.73746 -0.62935,4.49385 -0.71275,0.38384 -1.16619,0.43321 -2.43341,0.26493 -1.92404,-0.2555 -2.80979,-0.26841 -4.33555,-0.0632 -0.69955,0.0941 -1.62655,0.0199 -2.24754,-0.17988 z M 93.07977,183.1015 c -0.23424,-0.5457 -1.003153,-2.19694 -1.708695,-3.66942 -1.369577,-2.85833 -2.366852,-4.02614 -7.429429,-8.69985 l -2.292779,-2.11666 -0.260232,-1.85209 c -0.143128,-1.01864 -0.392663,-3.03274 -0.554522,-4.47576 -0.287906,-2.56679 -1.34819,-5.71069 -1.925935,-5.71069 -0.135454,0 -0.18315,0.20835 -0.105991,0.46302 0.592905,1.95686 1.319242,9.19714 0.882546,8.79739 -0.618996,-0.56662 -4.052912,-5.091 -4.442363,-5.85307 -0.456416,-0.89311 -1.032447,-3.39531 -1.880775,-8.16984 l -0.352579,-1.98438 -0.08457,1.45521 c -0.04651,0.80036 0.051,2.38957 0.216693,3.53157 0.165692,1.142 0.252455,2.12517 0.192806,2.18482 -0.05965,0.0596 -1.02036,-0.97307 -2.134914,-2.29492 -2.285073,-2.71008 -2.214771,-2.25684 -0.948927,-6.11767 1.73392,-5.28847 4.748868,-10.05117 9.048472,-14.29383 l 2.413417,-2.38145 1.469343,0.12797 c 3.504463,0.30524 8.611358,-0.61503 15.811959,-2.84931 4.182275,-1.29772 4.033065,-1.23171 3.252175,-1.43859 -0.49926,-0.13226 0.55447,-0.51538 4.29716,-1.5624 9.11681,-2.55041 18.05212,-6.20613 23.18226,-9.48459 0.77988,-0.49839 1.47536,-0.84877 1.54551,-0.77861 0.50257,0.50256 -1.33839,2.84545 -2.83633,3.60964 -2.24412,1.14486 -12.52046,5.41943 -15.34068,6.38114 -1.67349,0.57067 -4.34226,1.27256 -5.9306,1.55976 -3.17714,0.57448 -4.10539,0.94799 -1.61003,0.64784 0.87313,-0.10503 1.52524,-0.1237 1.44914,-0.0415 -0.0761,0.0822 -1.36614,0.27544 -2.86675,0.42943 -3.133,0.32151 -4.436544,0.78936 -2.23523,0.80225 0.75583,0.004 3.36384,0.3057 5.79558,0.6695 2.43174,0.3638 4.45873,0.66146 4.50444,0.66146 0.0457,0 0.02,0.16429 -0.057,0.36508 -0.11484,0.29927 0.59022,0.37437 3.91091,0.41655 4.21529,0.0535 5.1061,0.10863 5.7708,0.35688 1.86217,0.69547 19.35001,5.08063 24.40603,6.11993 1.85441,0.38119 5.06909,0.84111 7.14375,1.02204 l 3.77209,0.32896 -0.73272,0.7395 c -1.02311,1.03259 -2.79804,1.7554 -4.75043,1.93453 -1.38207,0.12681 -2.68131,-0.0714 -7.74601,-1.18193 -3.34698,-0.73386 -8.83303,-1.7537 -12.19121,-2.26632 -7.74261,-1.18189 -13.37002,-2.23509 -20.22025,-3.78434 -5.88536,-1.33104 -7.03503,-1.41252 -10.36885,-0.73495 -2.191083,0.44532 -3.403549,0.91109 -4.212185,1.61811 -0.234203,0.20477 -1.424828,0.49301 -2.645833,0.64052 -1.221006,0.14752 -2.874854,0.34651 -3.675219,0.44221 l -1.455208,0.17401 1.058333,0.19665 c 0.582084,0.10816 1.757429,0.20352 2.611878,0.21191 2.16746,0.0213 6.662301,0.70072 9.955834,1.50493 4.74179,1.15786 17.52292,6.19833 22.48958,8.86918 2.43905,1.31161 4.99861,3.37731 6.89827,5.56725 0.78986,0.91056 3.609,3.88976 6.26475,6.62044 2.65576,2.73069 4.82865,5.09865 4.82865,5.26212 0,0.50097 -2.36295,0.0199 -4.16003,-0.84687 -1.24398,-0.60002 -2.60227,-1.71347 -5.55625,-4.55471 -7.68639,-7.39302 -9.53332,-8.85933 -11.71497,-9.3007 -0.50932,-0.10304 -3.24776,-0.72376 -6.08542,-1.37937 -5.01602,-1.1589 -5.25126,-1.1882 -8.46666,-1.05471 -5.54138,0.23005 -9.196074,1.26427 -12.316419,3.48536 -1.44922,1.03157 -3.029421,2.82713 -3.029421,3.4423 0,0.13273 0.625078,-0.37235 1.389062,-1.12238 1.648228,-1.61814 4.468401,-3.04389 7.241018,-3.66074 2.54823,-0.56693 2.9936,-0.37255 0.92173,0.40228 -4.536724,1.69662 -8.608771,5.66457 -9.713692,9.46537 -0.572234,1.96841 -0.514621,4.29048 0.143358,5.77795 0.296051,0.66927 1.314648,2.40178 2.263548,3.85002 2.723108,4.15609 3.840392,6.80425 3.840392,9.10238 0,2.66292 -1.822452,5.41639 -3.584974,5.41639 -0.812745,0 -0.971768,-0.1171 -1.347395,-0.99219 z m -28.905388,-36.33831 -1.690884,-1.8712 0.862698,-2.29342 c 0.474484,-1.26138 1.458176,-3.46088 2.185983,-4.88779 1.913978,-3.75245 5.601634,-8.794 5.986154,-8.18393 0.09227,0.1464 1.089774,0.59276 2.216673,0.99191 1.768595,0.62645 2.110374,0.67588 2.498185,0.36127 0.253904,-0.20597 0.367786,-0.22859 0.261881,-0.052 -0.103068,0.17184 -0.0635,0.38901 0.08793,0.4826 0.155463,0.0961 -0.715563,1.22278 -2.000781,2.58806 -3.705144,3.93595 -6.256323,8.05715 -7.691745,12.4253 -0.418343,1.27307 -0.820155,2.31371 -0.892915,2.31254 -0.07276,-0.001 -0.89319,-0.84417 -1.823176,-1.87333 z m -7.966407,-8.08217 c -1.236927,-1.22973 -3.40342,-3.24363 -4.814428,-4.47532 -1.411009,-1.2317 -2.633423,-2.3494 -2.716477,-2.48378 -0.21925,-0.35475 0.887666,-3.14708 2.601779,-6.56328 0.821191,-1.63662 1.489797,-3.03792 1.485791,-3.11399 -0.004,-0.0761 0.229207,-0.39216 0.518251,-0.70242 0.289045,-0.31025 0.463095,-0.66512 0.386778,-0.78861 -0.07632,-0.12348 -0.04243,-0.22472 0.0753,-0.22498 0.117729,-2.6e-4 0.563067,-0.56581 0.989641,-1.25677 0.426573,-0.69097 0.794546,-1.28693 0.817716,-1.32436 0.02317,-0.0374 0.686186,0.55787 1.47337,1.32291 2.726668,2.64997 6.620555,5.80032 8.159781,6.60168 0.695681,0.36219 1.605836,1.16674 1.605836,1.41951 0,0.0814 -0.695299,1.06361 -1.545109,2.18281 -2.364354,3.11384 -3.734472,5.42405 -5.118083,8.62981 -0.694651,1.60948 -1.354843,2.94575 -1.467093,2.9695 -0.112249,0.0238 -1.216121,-0.96297 -2.453048,-2.19271 z"
           id="path14" /><path
           style="fill:#8ac043"
           d="m 108.951,180.37857 c -1.67835,-0.33205 -3.12439,-1.18131 -4.13786,-2.43015 -1.07413,-1.3236 -2.15729,-3.40405 -2.431,-4.66929 l -0.19312,-0.89269 2.47562,0.11611 c 2.69708,0.12649 3.97055,0.59513 5.40322,1.98839 0.9171,0.89188 2.01322,2.19442 1.84665,2.19442 -0.0644,0 0.0593,0.44648 0.27477,0.99219 l 0.39182,0.99218 -0.56329,-0.73256 c -0.69588,-0.90501 -3.54404,-2.96065 -4.86929,-3.51437 -1.70989,-0.71444 -1.59933,-0.26937 0.22898,0.92183 1.79583,1.17003 3.61307,2.99033 4.47408,4.48161 l 0.47798,0.82787 -1.13944,-0.029 c -0.62669,-0.016 -1.63429,-0.12689 -2.23912,-0.24655 z m 4.01927,-3.77272 c 0.0147,-0.33477 0.11968,-0.75921 0.2334,-0.94321 0.31649,-0.51209 -0.0677,-2.1135 -0.92951,-3.87441 -1.02984,-2.10425 -1.22992,-3.88249 -0.64334,-5.71775 0.5453,-1.70609 2.12764,-4.41067 2.97326,-5.08201 0.33486,-0.26584 0.75985,-0.62303 0.94443,-0.79375 0.4349,-0.40225 0.85069,-0.51717 2.34146,-0.6472 1.79817,-0.15684 2.73313,0.41444 3.10677,1.89831 0.71157,2.82589 -0.0529,5.03827 -2.51988,7.29299 -1.94848,1.7808 -2.30624,1.69102 -0.65301,-0.16387 0.73326,-0.8227 1.54093,-1.92403 1.79482,-2.44739 0.56978,-1.17456 0.65099,-4.07245 0.12822,-4.57572 -0.29967,-0.28849 -0.32831,-0.16214 -0.17586,0.7759 0.26856,1.65241 -0.40885,3.3487 -2.25127,5.63742 -1.84787,2.29546 -3.21893,4.88545 -3.3261,6.28309 -0.0414,0.54005 -0.0914,0.9819 -0.11115,0.9819 -0.0197,0 -0.0736,0.19364 -0.11969,0.43031 -0.28731,1.47468 -0.84483,2.13972 -0.79255,0.94539 z m 30.28562,-11.56477 c 0,-0.14695 -2.17289,-2.50139 -4.82865,-5.23208 -2.65575,-2.73068 -5.47489,-5.70988 -6.26475,-6.62044 -1.89966,-2.18994 -4.45922,-4.25564 -6.89827,-5.56725 -4.96666,-2.67085 -17.74779,-7.71132 -22.48958,-8.86918 -3.29353,-0.80421 -7.788371,-1.48366 -9.955831,-1.50493 -0.854449,-0.008 -2.029794,-0.10035 -2.611878,-0.20436 -0.940026,-0.16798 -0.732989,-0.23276 1.852084,-0.57953 3.095892,-0.41529 8.142555,-0.51084 10.980205,-0.20788 1.64809,0.17595 7.73537,1.68226 9.39271,2.32425 0.43656,0.1691 0.85328,0.31425 0.92604,0.32255 0.19941,0.0227 0.33733,0.0735 4.89479,1.80167 5.23695,1.98583 9.50187,4.07894 11.82718,5.80449 1.92664,1.4297 12.64736,13.25716 13.38338,14.76499 0.23086,0.47294 0.49143,0.8599 0.57904,0.8599 0.30037,0 0.28901,1.70108 -0.0163,2.43813 -0.29723,0.71758 -0.77018,1.00599 -0.77018,0.46967 z m -76.628989,-3.97504 -1.795852,-2.65474 0.0616,-1.77703 c 0.08358,-2.41117 1.200616,-8.03752 2.125933,-10.70803 0.972996,-2.80813 1.747533,-4.32007 3.704137,-7.2307 3.892385,-5.79028 9.161008,-10.15829 15.725158,-13.0371 2.358978,-1.03456 9.48618,-3.06751 10.070913,-2.8726 0.150727,0.0502 -0.552936,0.41952 -1.563696,0.82061 -9.04994,3.59124 -18.583686,11.99495 -22.539015,19.86747 -1.566147,3.11719 -2.331937,5.18521 -3.182193,8.59353 -0.608404,2.43883 -0.697643,3.3473 -0.709371,7.22155 -0.0074,2.43748 -0.03329,4.43178 -0.05759,4.43178 -0.0243,0 -0.852307,-1.19464 -1.840024,-2.65474 z m 85.104589,-22.25037 c -1.23202,-0.13152 -3.73233,-0.54501 -5.55625,-0.91885 -3.64442,-0.74698 -20.33617,-4.89426 -22.23394,-5.52431 l -1.19062,-0.39528 1.85208,0.15229 c 1.01865,0.0838 3.81662,0.36638 6.21771,0.62805 2.40109,0.26167 4.54422,0.48464 4.7625,0.49549 0.21828,0.0109 2.12328,0.25556 4.23333,0.54379 4.6265,0.63197 10.6819,1.40977 11.77396,1.51233 1.49709,0.14059 4.18177,0.65493 4.60735,0.8827 0.85803,0.4592 1.38558,1.28713 1.29946,2.03935 -0.0841,0.73474 -0.12322,0.75179 -1.80577,0.78729 -0.94588,0.02 -2.7278,-0.0713 -3.95981,-0.20285 z m -44.72352,-9.48655 c -6.54286,-0.13774 -7.373261,-0.34244 -3.20381,-0.78975 1.25277,-0.1344 3.70652,-0.42554 5.45277,-0.64697 5.15691,-0.65391 14.89731,-1.69081 22.62187,-2.40819 0.80037,-0.0743 3.19329,-0.31435 5.3176,-0.53338 7.80357,-0.8046 9.72954,-0.4358 9.76004,1.86896 0.006,0.48618 -2.11589,0.85167 -8.99222,1.54859 -8.75121,0.88693 -19.14302,1.20945 -30.95625,0.96074 z m -9.657289,-1.68159 c 2.888159,-0.77445 8.568209,-3.04284 21.166669,-8.45312 10.76831,-4.62435 12.03256,-5.11116 12.65426,-4.87259 1.43793,0.55179 -0.31759,2.01901 -5.5265,4.61891 -6.54838,3.26847 -10.86975,4.90005 -19.49193,7.35937 -4.9571,1.41392 -6.46848,1.73921 -8.598959,1.8507 l -2.58479,0.13526 z"
           id="path13" /><path
           style="fill:#2a94bd"
           d="m 109.49938,206.66923 c -0.51071,-0.21973 -1.4037,-0.27954 -2.64098,-0.1769 -3.16279,0.26237 -4.49946,-0.84098 -4.29944,-3.54896 0.0972,-1.31624 0.28311,-1.7495 1.38973,-3.23926 2.08976,-2.81331 2.14852,-3.07119 1.33204,-5.84615 -0.75358,-2.5612 -0.71836,-3.4539 0.1814,-4.59776 0.65622,-0.83424 1.61054,-1.33457 3.00105,-1.57338 1.91674,-0.32918 1.89772,-0.31026 2.0817,-2.07048 0.25176,-2.40873 0.45533,-2.52972 3.27413,-1.94598 3.16511,0.65545 3.23945,0.70707 3.19084,2.21537 -0.0222,0.68787 -0.15186,1.39798 -0.2882,1.57803 -0.43245,0.57111 0.007,1.08531 1.62441,1.90191 2.82853,1.42784 3.34122,2.8234 1.78583,4.86107 -1.67657,2.19644 -1.67317,2.06779 -0.17972,6.80028 0.83435,2.6439 0.74631,3.51373 -0.48979,4.83889 l -1.03934,1.11424 -4.07602,0.0105 c -2.7046,0.007 -4.33564,-0.10117 -4.84764,-0.32145 z m 3.99088,-0.95553 c 0.43657,0.005 1.4946,0.10132 2.35118,0.21507 1.26722,0.16828 1.72066,0.11891 2.43341,-0.26493 1.40454,-0.75639 1.51489,-1.54434 0.62935,-4.49385 -0.41961,-1.3976 -0.82932,-2.64852 -0.91047,-2.77982 -0.0811,-0.13129 -0.56011,-0.17177 -1.06436,-0.0899 -1.09799,0.17818 -2.42468,-0.31784 -2.81854,-1.05378 -0.24604,-0.45973 -0.21902,-0.50758 0.19659,-0.3481 0.26501,0.1017 0.97394,0.25235 1.57541,0.33479 0.96701,0.13254 1.15977,0.0657 1.6656,-0.57734 0.31463,-0.39997 0.5732,-0.85999 0.57461,-1.02227 10e-4,-0.16228 0.41813,-0.81782 0.92604,-1.45676 1.60134,-2.01446 1.21445,-3.04434 -1.6955,-4.51327 -1.13486,-0.57288 -1.5999,-0.96385 -1.66133,-1.39675 -0.0748,-0.52682 -0.33997,-0.64795 -2.14395,-0.9792 -2.00832,-0.36878 -2.06819,-0.36439 -2.44943,0.17991 -0.25351,0.36194 -0.92452,0.67269 -1.91012,0.88458 -3.57555,0.76873 -4.15652,1.862 -2.95617,5.56291 0.84325,2.59991 0.41543,4.15554 -1.89275,6.8824 -1.00863,1.19157 -1.30042,2.82946 -0.67431,3.78502 0.5718,0.87268 2.10592,1.31591 3.47617,1.00431 0.7396,-0.16819 1.37904,-0.13827 2.11666,0.099 0.62099,0.19978 1.54799,0.27397 2.24754,0.17988 0.65484,-0.0881 1.54781,-0.15644 1.98437,-0.1519 z M 92.036704,184.75689 c -0.362844,-0.36284 -1.005443,-1.43028 -1.427999,-2.37207 -1.409121,-3.14067 -3.556207,-6.0469 -6.50013,-8.79839 -1.523901,-1.42429 -3.885893,-3.8993 -5.248872,-5.50003 -1.362979,-1.60073 -4.224151,-4.87495 -6.358161,-7.27604 l -3.880017,-4.36563 0.162836,-1.4552 c 0.323234,-2.88864 0.225875,-2.8786 2.440661,-0.25188 1.100261,1.3049 2.049277,2.32374 2.108926,2.2641 0.05965,-0.0596 -0.02711,-1.04282 -0.192806,-2.18482 -0.165692,-1.142 -0.263204,-2.73121 -0.216693,-3.53157 l 0.08457,-1.45521 0.352579,1.98438 c 0.848328,4.77453 1.424359,7.27673 1.880775,8.16984 0.389451,0.76207 3.823367,5.28645 4.442363,5.85307 0.436696,0.39975 -0.289641,-6.84053 -0.882546,-8.79739 -0.07716,-0.25467 -0.02946,-0.46302 0.105991,-0.46302 0.577745,0 1.638029,3.1439 1.925935,5.71069 0.161859,1.44302 0.411394,3.45712 0.554522,4.47576 l 0.260232,1.85209 2.292779,2.11666 c 5.062577,4.67371 6.059852,5.84152 7.429429,8.69985 0.705542,1.47248 1.474455,3.12372 1.708695,3.66942 0.375627,0.87509 0.53465,0.99219 1.347395,0.99219 1.26561,0 2.632108,-1.38531 3.177245,-3.22099 0.949319,-3.1967 0.148674,-5.83183 -3.432663,-11.29778 -0.9489,-1.44824 -1.967497,-3.18075 -2.263548,-3.85002 -0.657979,-1.48747 -0.715592,-3.80954 -0.143358,-5.77795 1.104921,-3.8008 5.176968,-7.76875 9.713686,-9.46537 2.07187,-0.77483 1.6265,-0.96921 -0.92173,-0.40228 -2.772611,0.61685 -5.592784,2.0426 -7.241012,3.66074 -0.763984,0.75003 -1.389062,1.25511 -1.389062,1.12238 0,-0.61517 1.580201,-2.41073 3.029421,-3.4423 3.120345,-2.22109 6.775033,-3.25531 12.316413,-3.48536 3.2154,-0.13349 3.45064,-0.10419 8.46666,1.05471 2.83766,0.65561 5.5761,1.27633 6.08542,1.37937 2.17744,0.44052 4.02608,1.90654 11.66112,9.24761 4.22218,4.05961 5.66866,5.01618 8.38155,5.5428 l 1.78545,0.34658 -0.98369,0.43039 c -1.32002,0.57754 -2.80265,0.54203 -4.74933,-0.11376 -2.316,-0.78021 -4.17217,-2.06117 -7.21028,-4.97588 -2.91593,-2.79749 -8.03828,-7.25608 -8.81212,-7.67023 -0.63323,-0.33889 -10.69394,-2.87648 -12.24353,-3.08815 -1.72881,-0.23615 -5.73067,0.71377 -8.30936,1.97239 -3.749318,1.82999 -6.519629,4.64575 -7.839425,7.96804 -0.456204,1.1484 -0.549384,1.8215 -0.456174,3.29527 0.136974,2.16571 0.593326,3.17195 3.020206,6.65944 2.904076,4.17323 3.779082,6.83355 3.231511,9.82493 -0.621343,3.3944 -2.721853,5.60834 -5.321002,5.60834 -1.015004,0 -1.421004,-0.13786 -1.942859,-0.65972 z M 60.005145,155.71713 c -0.772737,-0.87058 -2.098679,-3.05526 -2.755434,-4.53996 -0.533005,-1.20495 -0.5504,-1.43027 -0.252822,-3.27494 l 0.319564,-1.98097 -0.752677,-0.63129 c -0.413972,-0.34721 -1.943301,-1.52471 -3.398509,-2.61665 -1.455209,-1.09195 -3.39526,-2.54774 -4.311225,-3.2351 l -1.665392,-1.24974 0.146796,-1.60864 c 0.134768,-1.47685 0.816595,-4.57882 1.059928,-4.82216 0.154591,-0.15459 3.854643,3.10015 7.236635,6.36569 1.647749,1.59101 3.058099,2.83055 3.13411,2.75454 0.07601,-0.076 0.697731,-1.4346 1.3816,-3.0191 1.618849,-3.75079 4.76736,-8.6565 7.372271,-11.48676 l 0.647889,-0.70394 -0.62214,-0.33182 c -1.792118,-0.95585 -11.866931,-10.42202 -11.866931,-11.15002 0,-0.34539 2.17488,-3.62617 2.411923,-3.63836 0.08963,-0.005 1.742265,1.66248 3.67252,3.70465 3.256061,3.44485 8.722325,8.4578 9.222621,8.4578 0.119436,0 1.194801,-0.77025 2.389699,-1.71167 5.328246,-4.19795 10.940172,-6.92863 17.62511,-8.57614 2.598278,-0.64035 7.429038,-1.36104 8.937697,-1.3334 0.983092,0.018 0.831982,0.0947 -1.26478,0.64219 -6.188658,1.61584 -12.419053,4.70889 -18.31455,9.09217 -2.38734,1.77497 -5.101074,4.20804 -5.101074,4.57349 0,0.13876 1.295732,0.87719 2.879405,1.64096 l 2.879406,1.38867 -1.846968,1.37754 -1.846967,1.37754 -2.686084,-1.30731 -2.686084,-1.30732 -0.989639,1.10654 c -2.889757,3.23109 -5.902069,8.34594 -7.629345,12.95449 l -0.870642,2.32297 1.179349,1.24891 c 2.561012,2.71207 2.441149,2.47203 2.098059,4.20162 -0.506989,2.55583 -0.493612,2.53 -1.092852,2.11028 -0.286677,-0.2008 -1.117811,-0.92993 -1.846965,-1.62029 -0.729154,-0.69036 -1.402645,-1.1783 -1.496645,-1.0843 -0.094,0.094 -0.221724,1.59612 -0.28383,3.33803 -0.06211,1.74191 -0.196552,3.16711 -0.298771,3.16711 -0.102218,0 -0.423634,-0.26789 -0.714256,-0.59531 z M 144.84339,144.1053 c -0.94589,-0.12958 -4.33917,-0.59658 -7.54063,-1.0378 -3.20146,-0.44121 -7.48323,-0.87566 -9.51505,-0.96544 -3.55559,-0.15711 -3.77539,-0.20074 -5.85741,-1.16263 -2.40786,-1.11243 -10.54882,-4.17973 -12.80583,-4.82489 -2.06973,-0.59163 -6.21775,-1.23103 -7.99423,-1.23228 -0.83166,-5.9e-4 -2.063339,0.18608 -2.737067,0.41482 -1.543518,0.52404 -1.813217,0.31432 -0.472819,-0.36767 1.234206,-0.62795 4.906626,-1.40422 6.788566,-1.43494 0.75762,-0.0124 3.80407,0.52739 6.79697,1.20427 6.85023,1.54925 12.47764,2.60245 20.22025,3.78434 3.35818,0.51262 8.84423,1.53246 12.19121,2.26632 5.0647,1.11049 6.36394,1.30874 7.74601,1.18193 2.02823,-0.18609 3.81076,-0.94084 4.85034,-2.05372 0.42937,-0.45964 0.851,-0.76538 0.93695,-0.67943 0.32576,0.32575 -0.19316,1.44462 -1.10584,2.38438 -2.34849,2.41816 -6.16068,3.25433 -11.50142,2.52274 z M 133.4663,132.25796 c -9.63586,-1.53977 -17.8708,-2.23707 -19.85461,-1.68121 -0.66353,0.18591 -1.47417,0.16159 -2.77813,-0.0834 -1.01267,-0.19024 -2.97231,-0.51141 -4.35475,-0.71372 -2.45269,-0.35894 -2.31816,-0.3673 5.55625,-0.34514 13.18267,0.0371 29.93772,-0.29325 31.12784,-0.61371 0.59523,-0.16028 1.36567,-0.51099 1.71209,-0.77934 0.34642,-0.26836 0.95728,-0.56788 1.35746,-0.66561 0.63233,-0.15441 0.72747,-0.0991 0.72661,0.42268 -0.001,0.84235 -0.84588,2.13192 -1.94522,2.97043 -2.45148,1.86983 -6.16643,2.34885 -11.54754,1.48898 z m -50.517484,-0.2631 -1.172698,-0.15637 1.802895,-1.38907 c 1.633463,-1.25852 1.930158,-1.38925 3.157073,-1.39107 0.744799,-10e-4 2.36621,-0.12499 3.603137,-0.27531 1.236927,-0.15032 3.623463,-0.32645 5.303412,-0.3914 1.67995,-0.0649 3.690498,-0.23872 4.467885,-0.38614 1.6584,-0.31451 2.83281,-0.34855 2.55841,-0.0742 -0.41456,0.41455 -9.996632,3.14524 -12.716806,3.62401 -2.653105,0.46697 -5.471123,0.64382 -7.003308,0.4395 z m 21.171264,-3.82712 c 0.0851,-0.0917 1.45437,-0.40165 3.04271,-0.68885 1.58834,-0.2872 4.25711,-0.98909 5.9306,-1.55976 2.82022,-0.96171 13.09656,-5.23628 15.34068,-6.38114 1.24293,-0.6341 2.62706,-2.1981 2.82611,-3.19337 0.0843,-0.42138 0.31747,-0.90245 0.51822,-1.06906 0.60846,-0.50498 0.46686,2.03021 -0.18909,3.38521 -0.82485,1.70391 -2.34895,2.78081 -7.83373,5.53512 l -4.96321,2.49239 -3.31251,0.38182 c -1.82188,0.21 -4.6222,0.50774 -6.22293,0.66166 -1.60073,0.15391 -3.4462,0.35247 -4.10104,0.44125 -0.65484,0.0888 -1.12096,0.0864 -1.03581,-0.005 z"
           id="path12" /><path
           style="fill:#5f9947"
           d="m 114.10723,181.82396 c 0.0668,-1.52644 -0.009,-2.11376 -0.31848,-2.45531 -0.48653,-0.53761 -0.60457,-2.03086 -0.23301,-2.94788 0.1474,-0.3638 0.28227,-0.75075 0.2997,-0.85989 0.0174,-0.10914 0.0387,-0.2282 0.0473,-0.26458 0.009,-0.0364 0.0495,-0.508 0.0909,-1.04805 0.10717,-1.39764 1.47823,-3.98763 3.3261,-6.28309 1.84242,-2.28872 2.51983,-3.98501 2.25127,-5.63742 -0.15245,-0.93804 -0.12381,-1.06439 0.17586,-0.7759 0.52277,0.50327 0.44156,3.40116 -0.12822,4.57572 -0.25389,0.52336 -1.06156,1.62469 -1.79482,2.44739 -1.65323,1.85489 -1.29547,1.94467 0.65301,0.16387 2.53386,-2.3158 3.29819,-4.66333 2.44326,-7.50407 -0.31291,-1.0397 -0.31511,-1.19721 -0.0132,-0.94669 0.19916,0.1653 0.61903,0.83125 0.93304,1.47991 0.45672,0.94346 0.53372,1.42748 0.38491,2.41977 -0.35337,2.35643 -1.55471,4.04565 -5.09369,7.16233 -1.19898,1.05591 -2.32398,2.18229 -2.50001,2.50308 -0.22296,0.40632 -0.30302,2.00786 -0.26391,5.2796 0.0309,2.583 -0.0348,4.69663 -0.14583,4.69697 -0.11108,3.4e-4 -0.16245,-0.90225 -0.11416,-2.00576 z m -1.10717,-6.72247 c 0.15257,-0.76286 -0.0388,-1.01976 -2.91744,-3.91576 -3.23082,-3.25034 -4.11085,-4.36504 -4.61908,-5.85079 -1.02437,-2.99462 0.81346,-5.8475 3.76697,-5.8475 1.65101,0 2.84913,0.54063 3.71555,1.67656 l 0.71618,0.93896 -0.67908,0.99935 c -0.3735,0.54964 -0.93298,1.76233 -1.24331,2.69486 -0.706,2.12153 -0.55751,3.76394 0.54227,5.99792 0.89043,1.80871 1.28846,3.66931 0.84375,3.94415 -0.19723,0.12189 -0.23721,-0.0808 -0.12581,-0.63775 z"
           id="path11" /></g></g></g></svg>
